<?xml version="1.0" encoding="utf-8"?>
<!-- Generator: Adobe Illustrator 16.0.0, SVG Export Plug-In . SVG Version: 6.00 Build 0)  -->
<!DOCTYPE svg PUBLIC "-//W3C//DTD SVG 1.1//EN" "http://www.w3.org/Graphics/SVG/1.1/DTD/svg11.dtd">
<svg version="1.1" xmlns="http://www.w3.org/2000/svg" xmlns:xlink="http://www.w3.org/1999/xlink" x="0px" y="0px"
	 width="841.889px" height="595.281px" viewBox="0 0 841.889 595.281" enable-background="new 0 0 841.889 595.281"
	 xml:space="preserve">
<g id="Layer_1">
</g>
<g id="Layer_2">
	<path fill="#231F20" d="M673.939,1.19H167.95c-24.406,0-44.051,19.05-44.051,42.86v507.774c0,23.812,19.645,42.86,44.051,42.86
		h505.393c24.407,0,44.051-19.049,44.051-42.86V43.456C717.394,20.24,697.75,1.19,673.939,1.19z M623.062,189.164
		c-4.672,24.32-35.714,109.422-91.944,184.564c-24.583,31.753-53.321,62.948-90.199,84.492
		c-13.597,7.938-40.503,17.978-58.376,10.477c-12.518-5.206-22.117-16.184-29.809-29.942
		c-13.839-24.817-21.333-58.753-27.828-84.483c-6.002-23.597-11.633-46.005-18.965-66.518c-4.272-12.045-6.871-24.231-11.839-35.803
		c-0.024-0.041-0.048-0.081-0.072-0.117c0.024,0.036,0.04,0.076,0.057,0.117c-0.198-0.315-0.372-0.57-0.562-0.861
		c0.166,0.247,0.339,0.489,0.505,0.752c-1.391-3.226-2.914-6.398-4.777-9.502c-14.074-23.411-34.211-0.91-55.346-3.981
		c-5.703-0.829-10.024-4.923-12.821-9.28c-1.608-2.49,1.249-5.064-7.028-7.15v-2.275c33.111-24.139,59.351-53.434,94.863-73.995
		c11.135-6.475,30.924-13.807,46.28-9.349c12.089,3.496,23.104,14.729,29.041,31.062c0.016,0,0.016,0,0.016,0
		c1.083,0,2.045,5.388,2.813,7.797c5.921,18.326,9.098,41.745,12.109,59.549c4.777,28.039,3.985,71.448,19.991,95.942h0.016
		c2.114,0,4.507,5.675,7.248,8.585c26.231,27.695,46.247-11.253,56.934-30.815c9.24-16.992,17.501-34.93,18.94-51.097
		c0.816-9.163,0.372-16.588-1.245-22.339c-4.575-16.333-18.665-20.25-40.734-19.494c-2.812,0.097-5.747,0.223-8.803,0.461
		c20.063-61.478,79.075-87.163,96.504-89.795c21.454-3.229,52.738-2.583,67.451,15.784c2.942,3.649,5.061,7.675,6.539,11.887
		C625.794,164.702,625.253,177.054,623.062,189.164z"/>
</g>
</svg>
